<svg xmlns="http://www.w3.org/2000/svg" xmlns:xlink="http://www.w3.org/1999/xlink" version="1.1" id="Layer_1" x="0px" y="0px" width="547.268px" height="222.772px" viewBox="0 0 547.268 222.772" enable-background="new 0 0 547.268 222.772" xml:space="preserve">
<g>
	<circle fill="#990616" cx="111.4" cy="111.4" r="111.4"/>
	<g>
		<g>
			<path fill="#FFFFFF" d="M163.642 61.272v6.785h-6.785c0 1.855-1.644 3.393-3.657 3.393H72.307c-2.015 0-3.658-1.537-3.658-3.393 h-6.785v-6.785l50.889-20.355L163.642 61.272z M163.642 129.124v6.785H61.864v-6.785c0-1.855 1.643-3.393 3.658-3.393h94.462 C161.998 125.7 163.6 127.3 163.6 129.124z M89.005 74.843v40.711h6.785V74.843h13.57v40.711h6.785V74.843h13.57v40.711 h6.785V74.843h13.57v40.711h3.128c2.014 0 3.7 1.5 3.7 3.393v3.393H68.649v-3.393c0-1.855 1.643-3.393 3.658-3.393h3.127 V74.843H89.005z"/>
		</g>
		<g>
			<path fill="#FFFFFF" d="M69.515 167.411c0 1.2 0.4 2.1 1.3 2.305c0.288-0.035 0.54-0.072 0.792-0.072 c0.756 0 1.3 0.3 1.3 0.721c0 0.539-0.612 0.756-1.26 0.756c-0.468 0-0.936-0.072-1.332-0.217 c-1.908 0.576-3.06 2.916-3.06 5.004c0 1.8 0.9 3.3 2.8 3.348c4.535 0 7.055-4.463 7.523-5.219 c0.216-0.361 0.504-0.613 0.684-0.613c0.108 0 0.2 0.1 0.2 0.252c0 0.145-0.036 0.361-0.144 0.6 c-0.432 1.26-3.383 7.486-9.323 7.486c-3.563 0-5.147-2.627-5.147-5.326c0-3.457 2.016-5.652 4.392-6.371 c-1.08-0.721-1.908-1.908-1.908-3.672c0-4.607 4.067-10.654 7.739-10.654c0.828 0 1.8 0.5 2.1 0.9 c1.512 0.7 2 2.1 2 3.564c0 2.195-0.936 4.787-1.008 6.514c-0.036 0.865-1.08 1.332-2.016 1.3 c-0.828 0-1.584-0.359-1.584-1.115c0-2.592 2.556-5.688 2.556-8.1c0-0.539-0.108-1.008-0.396-1.475h-0.18 C73.187 157.4 69.5 163.8 69.5 167.411z"/>
			<path fill="#FFFFFF" d="M74.7 177.815c0-1.117 0.72-2.592 2.016-2.305c1.8-2.736 3.744-6.803 4.788-9.035 c-0.36-0.971-0.54-1.943-0.54-2.879c0-2.412 1.116-4.355 2.484-4.355c0.864 0 1.3 0.6 1.3 1.6 c0 1.332-0.756 3.42-2.268 5.832c0.792 2.6 2.8 6.2 2.8 9.035c0 1.26-0.252 2.482-0.864 3.5 c1.404-1.08 1.908-2.412 3.492-5.148c0.36-2.52 1.008-5.723 1.836-8.926c-1.044 0-2.088-0.037-3.096-0.145 c-0.432-0.035-0.612-0.504-0.612-0.971c0-0.541 0.252-1.117 0.648-1.117c0.972 0 2.3 0 3.6 0.1 c0.396-1.582 0.864-3.166 1.332-4.607c0.18-0.611 0.792-0.898 1.476-0.898c0.9 0 1.9 0.6 1.9 1.8 c0 0.9-0.54 2.52-0.936 3.959c2.124 0.1 3.4 0.2 3.4 0.721c0 0.469-0.828 0.793-3.923 1 c-1.368 4.787-3.096 10.402-3.096 13.029c0 0.9 0.2 1.5 0.8 1.512c1.404 0 3.24-3.959 4.248-5.578 c0.252-0.434 0.432-0.648 0.612-0.648c0.144 0 0.3 0.1 0.3 0.396c0 0.143-0.036 0.359-0.144 0.6 c-0.504 1.26-2.987 7.162-6.011 7.162c-1.404 0-2.591-1.008-2.591-3.707c0-0.324 0-0.684 0.036-1.08 c-1.656 3.096-3.671 4.824-7.451 4.824C76.104 181.6 74.7 179.5 74.7 177.815z M77.616 176 c0.936 1.045-0.504 4.8 1.6 4.752c1.188 0 2.627-1.225 2.627-5.76c0-1.223-0.144-3.672-0.252-5.867 C80.459 171.8 78.7 174.4 77.6 176.015z"/>
			<path fill="#FFFFFF" d="M96.119 179.903c0-1.332 1.116-2.916 2.879-2.916c1.296 0 1.8 0.8 1.8 1.8 c0 1.332-1.08 2.916-2.772 2.916C96.947 181.7 96.1 181.1 96.1 179.903z"/>
			<path fill="#FFFFFF" d="M112.894 181.667c-0.9 0-1.908-0.541-1.908-1.512c0-0.9 1.548-9.324 3.492-16.451 c-0.684 1.152-1.656 2.52-3.168 3.959c-0.18 0.182-0.396 0.252-0.576 0.252c-0.432 0-0.756-0.467-0.756-0.898 c0-0.217 0.108-0.432 0.288-0.613c2.16-1.834 3.312-3.023 5.183-6.262c0.18-0.648 0.72-0.9 1.332-0.9 c0.9 0 1.9 0.6 1.9 1.404c0 1.115-2.736 9.682-4.536 20.156C114.082 181.4 113.5 181.7 112.9 181.667z"/>
			<path fill="#FFFFFF" d="M126.429 172.812c-0.756 0.756-1.728 1.26-2.7 1.26c-2.771 0-3.923-2.809-3.743-6.012 c0.252-4.139 2.7-8.891 6.767-8.891c3.671 0 4.7 4 4.5 7.271c-0.54 9.898-7.379 15.117-8.891 15.1 c-0.864 0-1.656-0.863-1.62-1.512c0.036-0.252 0.144-0.467 0.396-0.611C123.37 178.3 125.2 175.7 126.4 172.812z M123.298 167.735c-0.144 2.6 0.4 4.8 1.6 4.752c2.664 0 3.527-5.543 3.671-8.062c0.108-2.305-0.468-3.672-1.476-4.248 C124.846 160.4 123.5 164.3 123.3 167.735z"/>
			<path fill="#FFFFFF" d="M131.542 176.159c0-2.016 0.756-2.916 2.34-2.916c0.72 0 1.3 0.3 1.3 0.8 c0 0.646-0.504 1.979-0.504 3.852c0 1.3 0.4 2.2 1.3 2.627h0.072c1.944-0.072 3.384-4.393 3.384-7.488 c0-1.078-0.18-1.979-0.54-2.555c-0.432 0.217-0.828 0.324-1.152 0.324c-0.9 0-1.296-0.469-1.296-0.973s0.468-1.043 1.296-1.043 c0.504 0 1 0.1 1.4 0.145c1.26-1.621 2.34-3.348 3.492-5.869c-0.18 0.037-0.396 0.037-0.612 0 c-1.584 0-3.132-0.469-4.607-0.469c-2.016 0-2.232 0.865-2.736 0.865c-0.216 0-0.396-0.145-0.396-0.469 c0-1.584 1.332-3.816 3.528-3.816c1.728 0 3.6 0.5 5.1 0.469c1.188 0 2.016-0.611 2.448-0.611 c0.288 0 0.5 0.2 0.5 0.504c0 1.691-0.828 2.771-2.087 3.238c0.18 0.2 0.3 0.5 0.3 0.8 c0 1.801-2.052 4.393-3.6 5.76c1.691 0.9 2.4 2.7 2.4 4.572c0 3.49-2.52 7.486-6.228 7.5 C133.522 181.4 131.5 179.3 131.5 176.159z"/>
			<path fill="#FFFFFF" d="M155.156 163.2c0-1.943-0.539-2.916-0.972-3.203h-0.036c-2.123 0.469-3.096 4.463-3.419 8.4 c-0.072 0.756-0.504 1.08-1.044 1.08c-1.008 0-2.34-1.08-2.34-2.592c0-3.24 2.664-7.596 6.659-7.596 c3.132 0 4.4 2.6 4.4 5.65c0 7.596-7.415 12.203-9.971 14.76c1.764-0.648 3.203-0.576 6.695-1.836 c0.107-0.037 0.252-0.072 0.323-0.072c0.576 0 0.8 0.6 0.8 1.295c0 1.117-0.611 2.557-1.584 2.6 c-2.304 0-3.707-0.648-5.219-0.648c-0.685 0-1.404 0.145-2.232 0.539c-0.144 0.145-0.359 0.217-0.575 0.2 c-0.685 0-1.44-1.008-1.44-1.729c0-0.07 0-0.18 0.036-0.252C146.049 177.6 155.2 173.1 155.2 163.2z"/>
		</g>
	</g>
</g>
<g>
	<path fill="#222222" d="M242.49 88.283c1.35-0.149 2.16-0.87 2.16-1.95v-16.02h-2.97c-2.07 0-2.97 0.631-4.109 3.721h-1.02 l0.93-5.07c0 0 0.8 0.2 2 0.18h14.039c1.23 0 2.16-0.18 2.16-0.18l-0.93 5.07h-1.02c0.15-3.09-0.84-3.721-3.18-3.721h-2.97 l-0.3 0.301v15.719c0 0.9-0.15 1.62-0.15 1.62l3 0.271l-0.12 0.84l-7.53 0.18V88.283z"/>
	<path fill="#222222" d="M264.541 88.283c1.35-0.149 2.16-0.78 2.16-1.86V72.084c0-1.44-0.15-1.739-2.46-2.19v-0.75h12.36 c1.229 0 2.16-0.119 2.16-0.119l-0.93 5.01h-1.02c0.15-3.09-0.84-3.721-3.24-3.721h-3.93l-0.3 0.301v7.799h5.55l0.24-1.709 l1.11-0.18v5.279h-1.41v-2.221h-5.19l-0.3 0.301v6.42c0 0.9-0.15 1.68-0.15 1.68h4.71c2.58 0 2.94-0.57 4.44-3.72h1.02l-1.11 4.9 h-9.36c-1.5 0-4.35 0.09-4.35 0.09V88.283z"/>
	<path fill="#222222" d="M289.29 88.283c1.319-0.149 2.159-0.84 2.159-1.86V72.084c0-1.44-0.149-1.739-2.459-2.19v-0.75h6.959 c5.4 0 7.4 2.2 7.4 4.83c0 2.82-2.52 4.74-3.959 5.49v0.39l4.32 6.33c1.289 1.9 1.9 1.9 2.7 1.979l0.33 0 l-0.12 0.96h-4.35l-0.12-0.09c0 0-0.63-1.5-1.86-3.3l-3.719-5.49h-2.19l-0.3 0.3v5.85c0 0.871-0.15 1.53-0.15 1.53l2.7 0.3 l-0.12 0.84l-7.229 0.18V88.283z M296.609 79.104c1.801 0 3.87-1.44 3.87-4.35c0-2.28-1.29-4.44-4.979-4.44h-1.11l-0.3 0.301v8.489 H296.609z"/>
	<path fill="#222222" d="M315.029 88.283c1.351-0.149 2.101-0.75 2.16-1.86l0.57-14.339c0.061-1.44-0.12-1.739-2.43-2.19v-0.75h2.4 c2.399 0 3.299-0.119 3.299-0.119l0.121 0.119c0 0 0.4 1.6 0.9 2.76l4.59 11.76c0.21 0.5 0.4 1.2 0.6 1.711l5.819-14.16 c0.24-0.63 0.66-2.07 0.66-2.07h0.78c2.64 0 3.24-0.119 3.24-0.119l0.149 0.119c0 0-1.05 1.23-0.96 3.78l0.57 13.6 c0.029 0.93-0.09 1.53-0.09 1.53l2.639 0.18l-0.119 0.84l-7.17 0.18v-0.96c1.32-0.149 2.189-0.75 2.16-1.77l-0.66-14.79L327 89.2 l-0.931-0.359l-6.93-17.04c0 0-0.06 0.601-0.09 1.17l-0.54 13.499c-0.029 0.84-0.21 1.621-0.21 1.621l2.76 0.18l-0.12 0.8 l-5.91 0.18V88.283z"/>
	<path fill="#222222" d="M349.5 88.283c1.319-0.149 2.16-0.84 2.16-1.86V72.084c0-1.44 0-1.739-2.221-2.19v-0.75h2.34 c2.7 0 3.359-0.119 3.359-0.119l0.15 0.119c0 0-0.99 1.141-0.99 3.631v13.648c0 0.871-0.149 1.53-0.149 1.53L357 88.2 l-0.121 0.84l-7.379 0.18V88.283z"/>
	<path fill="#222222" d="M366.689 88.283c1.35-0.149 2.16-0.78 2.16-1.86V72.924c0-2.069-0.48-2.67-2.46-3.03v-0.75h0.899 c1.471 0 3-0.119 3-0.119s0.36 0.7 1.1 1.56l10.859 12.54c0.39 0.5 0.9 1.1 1.2 1.59v-12.48c0-1.319-0.03-2.01-2.46-2.25 v-0.84h5.7l0.149 0.42c0 0-2.069 0.57-2.069 3.061v16.68h-0.781l-12.748-15.06c-0.361-0.421-0.781-0.99-1.08-1.44v13.619 c0 0.9-0.15 1.621-0.15 1.621l2.699 0.18l-0.119 0.84l-5.91 0.18V88.283z"/>
	<path fill="#222222" d="M394.829 88.283c1.261-0.12 1.771-0.75 2.011-1.35l7.109-17.699l1.229-0.271l6.659 17 c0.811 2 1.4 2.2 2.3 2.34l-0.121 0.811h-1.289c-1.11 0-4.561 0.09-4.561 0.09v-1.02c0.84-0.03 1.59-0.271 1.26-1.17 l-1.83-4.801h-7.169l-0.39 0.301l-2.07 5.399l2.55 0.36l-0.12 0.84h-5.55V88.283z M403.919 72.324l-3.33 8.669h6.51l-2.579-6.84 C404.279 73.6 404 72.8 403.9 72.324z"/>
	<path fill="#222222" d="M422.789 88.283c1.35-0.149 2.01-0.78 2.01-1.86V72.084c0-1.44 0-1.739-2.221-2.19v-0.75h2.34 c2.701 0 3.361-0.119 3.361-0.119l0.148 0.119c0 0-0.988 1.141-0.988 3.631v13.559c0 0.9-0.15 1.65-0.15 1.65h5.01 c2.58 0 3.059-0.93 4.559-4.32h1.021l-1.23 5.49h-9.66c-1.5 0-4.199 0.09-4.199 0.09V88.283z"/>
	<path fill="#222222" d="M446.85 88.283c1.35-0.149 2.16-0.87 2.16-1.95V72.084c0-1.44-0.15-1.739-2.461-2.19v-0.75h12.061 c1.229 0 2.158-0.119 2.158-0.119l-0.93 5.01h-1.02c0.15-3.09-0.84-3.721-3.24-3.721h-3.629l-0.301 0.301v7.949h5.34l0.24-1.709 l1.109-0.181v5.28h-1.41v-2.221h-4.979l-0.301 0.301v6.299c0 0.9-0.15 1.62-0.15 1.62l3.301 0.271l-0.121 0.84l-7.828 0.18V88.283z "/>
	<path fill="#222222" d="M480.598 68.784c6.27 0 10.3 4.2 10.3 9.66c0 5.729-4.381 11.068-11.01 11.1 c-6.15 0-10.141-4.649-10.141-10.109C469.707 74 473.6 68.8 480.6 68.784z M480.447 88.3 c4.709 0 7.439-4.74 7.439-9.119c0-4.5-2.82-9.211-7.799-9.211c-4.68 0-7.41 4.23-7.41 8.6 C472.678 83.1 475.5 88.3 480.4 88.313z"/>
	<path fill="#222222" d="M502.379 72.084c0-1.44 0-1.739-2.221-2.19v-0.75h2.34c2.701 0 3.361-0.119 3.361-0.119l0.148 0.1 c0 0-0.99 1.141-0.99 3.631v9.09c0 4.4 3 6.3 6 6.299s6.15-2.039 6.15-6.09v-9.84c0-1.319-0.031-2.01-2.43-2.25v-0.84 h5.818l0.15 0.42c0 0-2.07 0.57-2.07 3.061v9.359c0 4.891-3.779 7.529-8.279 7.529c-3.959 0-7.949-1.92-7.949-7.409V72.084z"/>
	<path fill="#222222" d="M530.277 88.283c1.32-0.149 2.16-0.84 2.16-1.86V72.084c0-1.44-0.15-1.739-2.459-2.19v-0.75h6.959 c5.4 0 7.4 2.2 7.4 4.83c0 2.82-2.52 4.74-3.959 5.49v0.39l4.318 6.33c1.291 1.9 1.9 1.9 2.7 1.979l0.33 0 l-0.119 0.96h-4.35l-0.121-0.09c0 0-0.629-1.5-1.859-3.3l-3.721-5.49h-2.189l-0.299 0.3v5.85c0 0.871-0.15 1.53-0.15 1.5 l2.699 0.271l-0.119 0.84l-7.23 0.18V88.283z M537.598 79.104c1.799 0 3.869-1.44 3.869-4.35c0-2.28-1.289-4.44-4.979-4.44h-1.111 l-0.299 0.301v8.489H537.598z"/>
</g>
<line fill="#222222" stroke="#000000" stroke-miterlimit="10" x1="256.3" y1="111.8" x2="534.3" y2="111.8"/>
<g>
	<path fill="#222222" d="M276.42 134.023c0-1.44 0-1.739-2.22-2.19v-0.75h2.34c2.7 0 3.36-0.119 3.36-0.119l0.15 0.1 c0 0-0.99 1.141-0.99 3.631v9.09c0 4.4 3 6.3 6 6.299s6.149-2.039 6.149-6.09v-9.84c0-1.319-0.029-2.01-2.43-2.25v-0.84 h5.82l0.149 0.42c0 0-2.069 0.57-2.069 3.061v9.359c0 4.891-3.78 7.529-8.28 7.529c-3.959 0-7.95-1.92-7.95-7.409V134.023z"/>
	<path fill="#222222" d="M304.35 150.223c1.351-0.149 2.16-0.78 2.16-1.86v-13.499c0-2.069-0.479-2.67-2.459-3.03v-0.75h0.899 c1.47 0 3-0.119 3-0.119s0.36 0.7 1.1 1.56l10.859 12.54c0.39 0.5 0.9 1.1 1.2 1.59v-12.48 c0-1.319-0.029-2.01-2.459-2.25v-0.84h5.699l0.15 0.42c0 0-2.07 0.57-2.07 3.061v16.68h-0.779l-12.75-15.06 c-0.36-0.421-0.78-0.99-1.08-1.44v13.619c0 0.9-0.15 1.621-0.15 1.621l2.7 0.18l-0.12 0.84l-5.91 0.18V150.223z"/>
	<path fill="#222222" d="M334.47 150.223c1.319-0.149 2.16-0.84 2.16-1.86v-14.339c0-1.44 0-1.739-2.22-2.19v-0.75h2.34 c2.699 0 3.359-0.119 3.359-0.119l0.15 0.119c0 0-0.99 1.141-0.99 3.631v13.648c0 0.871-0.15 1.53-0.15 1.53l2.851 0.3 l-0.12 0.84l-7.38 0.18V150.223z"/>
	<path fill="#222222" d="M351.66 133.483c-0.51-1.29-1.771-1.65-1.771-1.65v-0.75h1.83c1.89 0 3.09-0.119 3.09-0.119l0.12 0.1 c-0.33 0.721-0.51 1.891-0.18 2.76l4.409 11.85c0.181 0.5 0.4 1.3 0.6 1.86l5.399-13.109c0.57-1.38 0.15-2.159-1.439-2.61 v-0.75h4.59l0.119 0.42c0 0-0.869 0.601-1.949 3.211l-6.9 16.648l-0.989-0.359L351.66 133.483z"/>
	<path fill="#222222" d="M377.25 150.223c1.35-0.149 2.16-0.78 2.16-1.86v-14.339c0-1.44-0.15-1.739-2.461-2.19v-0.75h12.359 c1.23 0 2.16-0.119 2.16-0.119l-0.93 5.01h-1.02c0.15-3.09-0.84-3.721-3.24-3.721h-3.93l-0.3 0.301v7.799h5.55l0.24-1.709 l1.109-0.18v5.279h-1.41v-2.221h-5.189l-0.3 0.301v6.42c0 0.9-0.15 1.68-0.15 1.68h4.71c2.58 0 2.939-0.57 4.439-3.72h1.021 l-1.11 4.89H381.6c-1.5 0-4.35 0.09-4.35 0.09V150.223z"/>
	<path fill="#222222" d="M402 150.223c1.319-0.149 2.159-0.84 2.159-1.86v-14.339c0-1.44-0.149-1.739-2.46-2.19v-0.75h6.96 c5.399 0 7.4 2.2 7.4 4.83c0 2.82-2.521 4.74-3.96 5.49v0.39l4.32 6.33c1.289 1.9 1.9 1.9 2.7 1.979l0.33 0 l-0.121 0.96h-4.35l-0.119-0.09c0 0-0.631-1.5-1.86-3.3l-3.72-5.49H407.1l-0.301 0.3v5.85c0 0.871-0.15 1.53-0.15 1.53l2.701 0.3 l-0.121 0.84l-7.229 0.18V150.223z M409.318 141.043c1.801 0 3.871-1.44 3.871-4.35c0-2.28-1.291-4.44-4.98-4.44H407.1 l-0.301 0.301v8.489H409.318z"/>
	<path fill="#222222" d="M428.43 145.692h1.02c0 3.7 2.3 4.6 4.3 4.621c1.951 0 3.811-0.841 3.811-3.15 c0-5.22-9.391-5.13-9.391-11.22c0-2.97 2.25-5.22 6.689-5.22c2.131 0 4.3 0.5 5 0.57l-0.93 4.68h-1.021 c0.301-2.25-0.84-4.109-3.359-4.109c-2.01 0-3.719 0.93-3.719 3.119c0 5.2 9.4 4.7 9.4 11.189c0 3.6-3.09 5.279-6.689 5.3 c-2.609 0-5.789-0.899-5.789-3.09C427.74 147.9 427.9 147.5 428.4 145.692z"/>
	<path fill="#222222" d="M450.389 150.223c1.32-0.149 2.16-0.84 2.16-1.86v-14.339c0-1.44 0-1.739-2.219-2.19v-0.75h2.34 c2.699 0 3.359-0.119 3.359-0.119l0.15 0.119c0 0-0.99 1.141-0.99 3.631v13.648c0 0.871-0.15 1.53-0.15 1.53l2.85 0.3 l-0.119 0.84l-7.381 0.18V150.223z"/>
	<path fill="#222222" d="M472.049 150.223c1.35-0.149 2.16-0.87 2.16-1.95v-16.02h-2.971c-2.068 0-2.969 0.631-4.109 3.721h-1.02 l0.93-5.07c0 0 0.8 0.2 2 0.18h14.039c1.23 0 2.16-0.18 2.16-0.18l-0.93 5.07h-1.02c0.15-3.09-0.84-3.721-3.18-3.721h-2.971 l-0.299 0.301v15.719c0 0.9-0.15 1.62-0.15 1.62l3 0.271l-0.121 0.84l-7.529 0.18V150.223z"/>
	<path fill="#222222" d="M498.178 150.223c1.32-0.149 2.16-0.84 2.16-1.86v-6.119l-5.76-9.09c-0.721-1.14-1.59-1.32-1.59-1.32v-0.75 h1.439c1.891 0 3.061-0.119 3.061-0.119l0.119 0.119c0 0-0.57 1.1 0.1 2.16l3.719 6c0.301 0.5 0.6 1.2 0.9 1.7 l4.469-7.229c0.48-0.78 0.33-1.62-1.199-1.86v-0.75h4.889l0.121 0.42c0 0-1.17 0.391-2.07 1.83l-5.49 8.85v6.18 c0 0.871-0.148 1.53-0.148 1.53l2.699 0.271l-0.121 0.84l-7.229 0.18V150.223z"/>
</g>
<g>
</g>
<g>
</g>
<g>
</g>
<g>
</g>
<g>
</g>
<g>
</g>
<g>
</g>
<g>
</g>
<g>
</g>
<g>
</g>
<g>
</g>
<g>
</g>
<g>
</g>
<g>
</g>
<g>
</g>
<g>
</g>
<g>
</g>
</svg>
